#!OML:ASF F:\VICON\USERDATA\INSTALL\rory3\rory3.ASF
:FULLY-SPECIFIED
:DEGREES
327
root 0.244199 15.9439 17.7716 1.66028 2.23402 7.12814
lowerback 12.1443 -0.151261 -10.3059
upperback -4.62838 -1.89314 0.63243
thorax -11.6596 -0.091039 6.94478
lowerneck -9.40233 -5.63509 -4.9921
upperneck 18.2725 -7.75537 4.24747
head 7.52553 -3.68443 1.47463
rclavicle 1.20265e-014 -8.74653e-015
rhumerus -52.1805 -12.3929 -75.0156
rradius 19.1449
rwrist 6.52859
rhand -6.38366 19.036
rfingers 7.12502
rthumb 19.4635 -10.0098
lclavicle 1.20265e-014 -8.74653e-015
lhumerus -32.0854 0.830291 87.7884
lradius 31.4942
lwrist 5.66715
lhand -5.79373 17.9527
lfingers 7.12502
lthumb 20.0306 46.9402
rfemur -34.678 24.3749 3.66199
rtibia 21.1437
rfoot -16.7775 -21.1534
rtoes 0.88327
lfemur 19.2208 -12.2844 -37.0751
ltibia 4.45278e-014
lfoot -11.3674 5.57208
ltoes 9.77101
328
root 0.232518 15.9092 17.916 1.71807 2.5154 7.03635
lowerback 12.0953 -0.215612 -10.179
upperback -4.63474 -1.94674 0.68492
thorax -11.626 -0.125499 6.9407
lowerneck -9.28321 -5.67348 -5.07186
upperneck 18.174 -7.80898 4.31712
head 7.48092 -3.71194 1.50881
rclavicle 1.97791e-014 1.82882e-014
rhumerus -51.8264 -12.0132 -75.3277
rradius 19.3148
rwrist 5.68412
rhand -6.14418 18.4302
rfingers 7.12502
rthumb 19.6938 -10.5922
lclavicle 1.97791e-014 1.82882e-014
lhumerus -32.1572 1.10044 87.7862
lradius 31.1191
lwrist 5.49228
lhand -5.93547 17.9688
lfingers 7.12502
lthumb 19.8944 46.9705
rfemur -34.4133 24.3203 3.90458
rtibia 20.8974
rfoot -17.1446 -21.0594
rtoes 0.395237
lfemur 19.9665 -12.1813 -36.9754
ltibia 5.725e-014
lfoot -11.6968 5.48898
ltoes 7.06577
329
root 0.217006 15.8831 18.0604 1.75181 2.67785 7.07829
lowerback 12.0784 -0.236758 -10.2516
upperback -4.66594 -1.9855 0.702674
thorax -11.6428 -0.135291 7.01006
lowerneck -9.26963 -5.68782 -5.08773
upperneck 18.2481 -7.82726 4.30152
head 7.50374 -3.72271 1.50426
rclavicle -6.18717e-015 -3.97569e-015
rhumerus -51.4853 -11.7699 -75.4859
rradius 19.1344
rwrist 5.32842
rhand -6.49643 18.5646
rfingers 7.12502
rthumb 19.3551 -10.4921
lclavicle -6.18717e-015 -3.97569e-015
lhumerus -32.2608 1.45047 87.6652
lradius 30.7527
lwrist 5.34506
lhand -5.55049 17.365
lfingers 7.12502
lthumb 20.2644 46.3278
rfemur -34.1492 24.0312 4.22121
rtibia 20.9248
rfoot -16.9135 -20.6797
rtoes -0.0938263
lfemur 20.584 -11.9781 -36.9386
ltibia -3.18055e-015
lfoot -11.9754 5.2708
ltoes 5.20948
330
root 0.204016 15.8669 18.1981 1.79628 2.77339 7.07588
lowerback 12.1938 -0.219825 -10.1994
upperback -4.73076 -1.97223 0.69575
thorax -11.7908 -0.121343 6.9761
lowerneck -9.35223 -5.69629 -5.09183
upperneck 18.4157 -7.84191 4.29802
head 7.57424 -3.72744 1.49859
rclavicle 1.11568e-014 2.06736e-014
rhumerus -51.2482 -11.9269 -75.3398
rradius 19.0733
rwrist 5.57544
rhand -6.76406 18.8218
rfingers 7.12502
rthumb 19.0977 -10.2606
lclavicle 1.11568e-014 2.06736e-014
lhumerus -32.3859 1.72828 87.5973
lradius 30.3341
lwrist 5.14739
lhand -5.37419 17.7614
lfingers 7.12502
lthumb 20.4339 46.7062
rfemur -34.0854 23.5358 4.70123
rtibia 21.4144
rfoot -16.4516 -19.846
rtoes 1.14153
lfemur 21.011 -11.7249 -36.8114
ltibia 6.36111e-015
lfoot -12.0343 4.9013
ltoes 5.11396
331
root 0.196375 15.8449 18.3439 1.75743 2.99135 7.16069
lowerback 12.432 -0.243101 -10.1158
upperback -4.82937 -2.0283 0.650051
thorax -12.0403 -0.136957 6.90111
lowerneck -9.04193 -5.72712 -5.18146
upperneck 18.2845 -7.88593 4.34094
head 7.48371 -3.75723 1.53251
rclavicle -6.18717e-015 1.59028e-015
rhumerus -51.1963 -11.8751 -75.2999
rradius 19.2972
rwrist 5.54716
rhand -6.72334 18.892
rfingers 7.12502
rthumb 19.1369 -10.1865
lclavicle -6.18717e-015 1.59028e-015
lhumerus -32.7647 1.85649 87.5778
lradius 29.9636
lwrist 5.03169
lhand -5.5221 17.9856
lfingers 7.12502
lthumb 20.2917 46.9456
rfemur -33.6957 22.4857 5.3758
rtibia 21.9467
rfoot -15.9387 -18.4692
rtoes 4.71826
lfemur 21.5983 -11.5529 -36.8433
ltibia 0
lfoot -12.0443 4.45669
ltoes 5.65652
332
root 0.186078 15.8149 18.4984 1.68861 3.19265 7.33621
lowerback 12.519 -0.273186 -10.1911
upperback -4.91272 -2.10541 0.580784
thorax -12.1762 -0.159213 6.88816
lowerneck -8.61555 -5.76554 -5.15269
upperneck 18.1033 -7.95071 4.31924
head 7.34979 -3.79718 1.52833
rclavicle 2.24627e-014 -1.98785e-014
rhumerus -51.1787 -11.4148 -75.6414
rradius 19.6104
rwrist 4.97809
rhand -6.91087 18.8146
rfingers 7.12502
rthumb 18.9565 -10.2816
lclavicle 2.24627e-014 -1.98785e-014
lhumerus -33.1649 2.16854 87.4297
lradius 29.4968
lwrist 4.82013
lhand -5.69393 17.7636
lfingers 7.12502
lthumb 20.1266 46.7411
rfemur -33.2026 21.5623 5.94413
rtibia 22.4881
rfoot -15.4315 -17.1755
rtoes 8.77397
lfemur 22.2787 -11.3545 -36.981
ltibia 5.725e-014
lfoot -12.0996 3.96478
ltoes 5.4474
333
root 0.168805 15.795 18.6495 1.71086 3.2585 7.3854
lowerback 12.3158 -0.321153 -10.3103
upperback -4.86465 -2.16027 0.608912
thorax -11.9837 -0.188714 6.98938
lowerneck -8.68084 -5.77149 -5.18129
upperneck 18.0987 -7.9575 4.35159
head 7.36282 -3.79843 1.54081
rclavicle -1.88845e-015 -3.18055e-015
rhumerus -50.7237 -10.8356 -76.0966
rradius 19.7809
rwrist 4.42278
rhand -7.1413 18.4884
rfingers 7.12502
rthumb 18.7349 -10.6294
lclavicle -1.88845e-015 -3.18055e-015
lhumerus -33.3236 2.57297 87.301
lradius 29.0723
lwrist 4.68957
lhand -5.79697 18.2859
lfingers 7.12502
lthumb 20.0275 47.2737
rfemur -32.9327 21.0419 6.49984
rtibia 23.036
rfoot -14.5427 -16.5364
rtoes 10.3178
lfemur 22.8141 -11.0737 -36.8893
ltibia 3.81667e-014
lfoot -12.1247 3.46921
ltoes 4.93473
334
root 0.148249 15.7808 18.7973 1.73768 3.34657 7.30691
lowerback 12.075 -0.351266 -10.3191
upperback -4.66573 -2.15277 0.680963
thorax -11.6065 -0.212988 7.0583
lowerneck -9.28014 -5.83069 -5.17575
upperneck 18.2545 -8.00881 4.2971
head 7.52075 -3.81519 1.498
rclavicle -1.42628e-014 1.98785e-014
rhumerus -49.8184 -10.7029 -76.277
rradius 19.643
rwrist 4.27978
rhand -7.33245 18.2927
rfingers 7.12502
rthumb 18.5511 -10.8427
lclavicle -1.42628e-014 1.98785e-014
lhumerus -33.1339 2.98514 87.1852
lradius 28.5825
lwrist 4.31683
lhand -5.81206 18.7951
lfingers 7.12502
lthumb 20.013 47.7845
rfemur -32.8345 20.9219 6.97974
rtibia 23.6014
rfoot -13.6828 -16.3837
rtoes 11.7353
lfemur 23.3338 -10.8233 -36.6384
ltibia -2.22639e-014
lfoot -12.0105 3.0694
ltoes 4.15192
335
root 0.132447 15.7769 18.9551 1.77025 3.48029 7.13345
lowerback 12.0211 -0.342705 -10.0711
upperback -4.6578 -2.08991 0.701718
thorax -11.5796 -0.202995 6.925
lowerneck -9.47186 -5.91352 -5.19087
upperneck 18.428 -8.12393 4.31544
head 7.61937 -3.8645 1.48727
rclavicle -1.14301e-014 -1.74931e-014
rhumerus -49.3608 -10.9182 -76.1537
rradius 19.5838
rwrist 4.25652
rhand -7.23737 18.4187
rfingers 7.12502
rthumb 18.6425 -10.708
lclavicle -1.14301e-014 -1.74931e-014
lhumerus -33.3016 3.23553 87.0238
lradius 28.3164
lwrist 3.97895
lhand -5.29516 19.3255
lfingers 7.12502
lthumb 20.5098 48.2622
rfemur -32.8197 21.1287 7.3231
rtibia 24.1112
rfoot -13.1624 -16.5338
rtoes 14.8347
lfemur 23.8347 -10.6115 -36.3145
ltibia -2.22639e-014
lfoot -11.7587 2.71123
ltoes 3.48357
336
root 0.113071 15.7741 19.1187 1.76821 3.59002 7.22815
lowerback 12.0637 -0.372668 -10.2128
upperback -4.80886 -2.16878 0.700344
thorax -11.7626 -0.212381 7.02606
lowerneck -9.21943 -5.81888 -5.13776
upperneck 18.5335 -8.00692 4.25293
head 7.59784 -3.81453 1.47726
rclavicle 2.39536e-014 -7.95139e-016
rhumerus -49.3416 -10.7592 -76.0594
rradius 19.7941
rwrist 4.09128
rhand -7.02664 18.6108
rfingers 7.12502
rthumb 18.8452 -10.4963
lclavicle 2.39536e-014 -7.95139e-016
lhumerus -33.9347 3.76811 86.7334
lradius 28.026
lwrist 3.67942
lhand -4.90127 19.8839
lfingers 7.12502
lthumb 20.8883 48.7794
rfemur -32.8626 21.6101 7.22191
rtibia 24.6399
rfoot -13.333 -16.6044
rtoes 20.614
lfemur 24.3475 -10.3736 -36.259
ltibia 7.31528e-014
lfoot -11.3684 2.35765
ltoes 1.67159
337
root 0.0920903 15.7684 19.2838 1.67357 3.69446 7.09389
lowerback 11.989 -0.442426 -10.1655
upperback -4.82926 -2.23979 0.765352
thorax -11.7248 -0.248288 7.08389
lowerneck -9.25461 -5.71944 -5.08491
upperneck 18.7544 -7.88727 4.24997
head 7.66816 -3.75193 1.47737
rclavicle -1.81888e-014 -6.36111e-015
rhumerus -49.133 -10.6089 -76.0805
rradius 20.0442
rwrist 4.11346
rhand -7.16219 18.8107
rfingers 7.12502
rthumb 18.7148 -10.309
lclavicle -1.81888e-014 -6.36111e-015
lhumerus -34.4756 4.36455 86.3973
lradius 27.6886
lwrist 3.44612
lhand -4.72938 20.2341
lfingers 7.12502
lthumb 21.0534 49.1112
rfemur -32.6956 21.8238 7.56885
rtibia 25.2076
rfoot -12.9924 -16.746
rtoes 23.3922
lfemur 25.0267 -10.1135 -35.9547
ltibia -4.77083e-014
lfoot -10.9814 1.88263
ltoes 0.880779
338
root 0.0732845 15.7634 19.4469 1.60602 3.79795 6.82086
lowerback 11.8592 -0.482297 -9.863
upperback -4.78601 -2.2192 0.813634
thorax -11.6029 -0.268912 6.95451
lowerneck -9.29177 -5.70625 -4.88617
upperneck 18.7724 -7.87175 4.09998
head 7.66527 -3.74343 1.39685
rclavicle 1.68967e-014 -3.18055e-015
rhumerus -48.749 -10.8775 -75.9384
rradius 20.0882
rwrist 4.477
rhand -7.54667 19.18
rfingers 7.12502
rthumb 18.345 -9.97496
lclavicle 1.68967e-014 -3.18055e-015
lhumerus -34.7279 4.80923 86.1039
lradius 27.0991
lwrist 3.2995
lhand -4.77602 20.4426
lfingers 7.12502
lthumb 21.0086 49.3248
rfemur -32.3996 21.3448 8.33751
rtibia 25.8376
rfoot -11.9079 -16.4993
rtoes 24.3394
lfemur 25.682 -9.86365 -35.4967
ltibia -3.49861e-014
lfoot -10.629 1.44331
ltoes 0.746824
339
root 0.0557452 15.7646 19.6076 1.59705 3.94287 6.49291
lowerback 11.8234 -0.556502 -9.5081
upperback -4.8368 -2.24786 0.908238
thorax -11.6358 -0.301287 6.86389
lowerneck -9.09986 -5.71942 -4.74814
upperneck 18.6451 -7.87996 3.92159
head 7.57628 -3.75822 1.32251
rclavicle 2.99171e-014 7.15625e-015
rhumerus -48.3047 -10.8449 -75.9246
rradius 19.9374
rwrist 4.54194
rhand -7.88889 19.3185
rfingers 7.12502
rthumb 18.0157 -9.86708
lclavicle 2.99171e-014 7.15625e-015
lhumerus -35.0731 5.1531 85.9131
lradius 26.4701
lwrist 3.28087
lhand -4.90687 20.2948
lfingers 7.12502
lthumb 20.8829 49.1908
rfemur -32.0719 20.4638 9.29072
rtibia 26.4685
rfoot -10.225 -16.3633
rtoes 22.5565
lfemur 26.1963 -9.67434 -34.9628
ltibia -1.90833e-014
lfoot -10.0569 1.05751
ltoes -0.259311
340
root 0.0343946 15.7604 19.7709 1.55238 4.00671 6.11906
lowerback 11.8209 -0.613172 -9.21204
upperback -4.91217 -2.26169 1.05844
thorax -11.7175 -0.315643 6.86826
lowerneck -9.10291 -5.69906 -4.73554
upperneck 18.8067 -7.8471 3.84751
head 7.62479 -3.74714 1.29821
rclavicle 1.65985e-014 -6.36111e-015
rhumerus -47.9161 -10.8482 -75.7908
rradius 19.8372
rwrist 4.6708
rhand -7.97926 19.1462
rfingers 7.12502
rthumb 17.9288 -10.0474
lclavicle 1.65985e-014 -6.36111e-015
lhumerus -35.6421 5.69439 85.6691
lradius 25.8351
lwrist 2.67453
lhand -5.11366 19.8765
lfingers 7.12502
lthumb 20.6842 48.7943
rfemur -31.718 19.7452 10.2738
rtibia 27.0795
rfoot -9.08856 -16.2404
rtoes 21.4891
lfemur 26.7574 -9.41363 -34.3423
ltibia 9.54166e-015
lfoot -9.28607 0.606471
ltoes -0.957079
